<svg width="128" height="105" viewBox="0 0 128 105" fill="none" xmlns="http://www.w3.org/2000/svg">
<path d="M53.54 54.4576C53.47 54.4076 46.67 49.4676 46.43 49.2876C46.42 49.2776 46.4 49.2676 46.38 49.2676C46.35 49.2676 46.31 49.2776 46.29 49.2976C46.27 49.3176 46.23 49.3776 46.26 49.4376C46.35 49.7076 47.62 53.6376 47.64 53.6776C47.81 54.2476 47.95 54.4076 48.08 54.5076C48.18 54.5876 48.38 54.6776 48.9 54.6676H53.48C53.57 54.6676 53.58 54.6276 53.59 54.6076C53.62 54.5076 53.55 54.4476 53.55 54.4476L53.54 54.4576Z" fill="white"/>
<path d="M44.3 56.6279C44.03 55.7679 40.9 46.1379 40.79 45.8079C40.67 45.4479 40.85 45.0579 41.2 44.9179C41.24 44.8979 41.33 44.8679 43.02 44.3279L44.15 43.9579C45.43 43.5379 46.23 44.1279 46.87 44.5879H46.88L48.91 46.0679C52.72 48.8279 60.63 54.5779 61.02 54.8579C61.09 54.9079 61.21 54.9079 61.3 54.8579C61.35 54.8279 61.42 54.7779 61.42 54.6079C61.42 53.8579 61.42 39.7279 61.42 36.0879C59.12 36.8379 52.57 38.9579 50.9 39.5079C51.01 39.5879 51.16 39.6979 51.35 39.8279C51.99 40.2879 52.86 40.9279 53 41.0179C53.02 41.0279 53.05 41.0579 53.09 41.0379C53.26 40.9879 58.41 39.3079 58.46 39.2879L59.27 39.0279V50.8879L58.3 50.1779C58.2 50.0979 47.9 42.6179 47.13 42.0579C46.6 41.6779 46.09 41.4279 45.45 41.4279C45.17 41.4279 44.86 41.4779 44.51 41.5879C42.97 42.0779 39 43.3679 38.36 43.5779C38.05 43.6779 37.92 43.9179 38.02 44.2179C38.08 44.3979 38.58 45.9379 39.23 47.9379C40.52 51.8979 42.28 57.3079 42.5 58.0079C43.17 60.0979 44.24 60.8779 46.42 60.8779C46.99 60.8779 59.73 60.8779 61.44 60.8779V58.7179H47.48C45.37 58.7079 44.8 58.0579 44.33 56.6079L44.3 56.6279Z" fill="white"/>
<path d="M59.02 10.3777C59.02 10.3777 67.51 10.3777 67.81 10.3777C67.85 10.3777 67.9 10.3277 67.92 10.2677C67.92 10.2477 67.92 10.1777 67.86 10.1377C67.67 9.99766 65.42 8.35766 64.25 7.50766C63.78 7.14766 63.56 7.09766 63.4 7.09766C63.27 7.09766 63.06 7.13766 62.64 7.44766L58.94 10.1377C58.87 10.1877 58.88 10.2277 58.89 10.2577C58.92 10.3577 59.01 10.3577 59.02 10.3577V10.3777Z" fill="white"/>
<path d="M67.34 20.9075C67.34 20.9075 67.28 20.9175 67.26 20.9375C67.16 21.0775 64.07 25.3275 63.94 25.5075L63.44 26.1975L56.46 16.6075H57.67C57.8 16.6075 70.53 16.6075 71.48 16.6075C72.41 16.6075 73.18 16.4075 73.88 15.4475C74.83 14.1575 77.3 10.7575 77.69 10.2175C77.88 9.95752 77.84 9.68751 77.58 9.49751C77.02 9.08751 66.74 1.62752 65.85 0.977517C64.07 -0.322483 62.76 -0.322488 60.99 0.957512C60.52 1.29751 50.22 8.78751 48.84 9.78751L50.11 11.5375L61.4 3.32752C63.12 2.10752 63.96 2.29752 65.2 3.18752C66 3.77752 74.3 9.80752 74.4 9.87752C74.71 10.0975 74.79 10.5075 74.59 10.8275C74.56 10.8775 74.31 11.2175 72.85 13.2375L72.78 13.3375C71.99 14.4275 71.01 14.4275 70.22 14.4275H70.19C69.1 14.4275 53.33 14.4275 52.72 14.4275C52.63 14.4275 52.54 14.4975 52.49 14.5875C52.46 14.6375 52.44 14.7275 52.53 14.8675C52.97 15.4675 61.28 26.8975 63.42 29.8475C64.84 27.8875 68.89 22.3175 69.92 20.8975C68.35 20.8975 67.47 20.8975 67.33 20.8975L67.34 20.9075Z" fill="white"/>
<path d="M73.68 10.8877C73.68 10.8877 73.7 10.8977 73.7 10.9077C73.7 10.9077 73.69 10.8977 73.68 10.8877Z" fill="white"/>
<path d="M42.91 21.9277C42.91 21.9277 42.88 21.9277 42.86 21.9277C42.84 21.9277 42.8 21.9277 42.78 21.9577C42.54 22.1277 39.2 24.5577 39.17 24.5777C38.68 24.9177 38.57 25.1077 38.52 25.2577C38.48 25.3777 38.45 25.5877 38.62 26.0877L40.04 30.4377C40.07 30.5277 40.11 30.5277 40.13 30.5277C40.24 30.5277 40.27 30.4377 40.27 30.4377C40.31 30.3277 42.9 22.3677 42.99 22.0877C43 22.0477 42.98 21.9877 42.92 21.9477L42.91 21.9277Z" fill="white"/>
<path d="M34.3 25.9677C33.66 23.9477 34.09 23.2377 35.34 22.3077C35.86 21.9377 40.44 18.6077 42.9 16.8277C44.2 15.8877 44.48 15.6777 44.55 15.6277C44.69 15.5277 44.86 15.4777 45.04 15.4877C45.23 15.5077 45.4 15.5977 45.52 15.7377C45.55 15.7777 45.68 15.9577 46.61 17.2377L47.34 18.2377C48.13 19.3277 47.83 20.2577 47.58 21.0177V21.0377C47.24 22.0577 42.36 37.0977 42.18 37.6577C42.15 37.7377 42.18 37.8577 42.26 37.9277C42.3 37.9677 42.38 38.0177 42.53 37.9677C43.24 37.7377 56.68 33.3577 60.14 32.2377C57.94 29.2077 54.56 24.5577 53.64 23.2977C53.4 24.0477 52.9 25.5777 52.84 25.7577C52.84 25.7877 52.83 25.8177 52.84 25.8477C52.94 25.9877 56.13 30.3677 56.16 30.4177L56.66 31.1077L45.38 34.7777L45.76 33.6277C45.8 33.5077 49.74 21.3977 50.03 20.4977C50.31 19.6077 50.36 18.8177 49.66 17.8577C48.72 16.5477 46.27 13.1677 45.86 12.6177C45.75 12.4577 45.6 12.3877 45.45 12.3877C45.35 12.3877 45.24 12.4277 45.14 12.4977C45.02 12.5777 44.2 13.1777 43.04 14.0277C39.91 16.3077 34.08 20.5477 33.41 21.0277C31.63 22.3177 31.22 23.5677 31.89 25.6477C32.07 26.1977 36.01 38.3077 36.54 39.9277L38.59 39.2577L34.27 25.9777L34.3 25.9677Z" fill="white"/>
<path d="M80.49 49.2671C80.42 49.3171 73.62 54.2571 73.39 54.4271C73.35 54.4571 73.34 54.5171 73.36 54.5771C73.36 54.6071 73.41 54.6571 73.48 54.6571C73.77 54.6571 77.9 54.6571 77.94 54.6571C78.54 54.6671 78.74 54.5871 78.87 54.4871C78.97 54.4171 79.12 54.2571 79.28 53.7571L80.69 49.3971C80.72 49.3171 80.69 49.2871 80.67 49.2771C80.58 49.2071 80.51 49.2671 80.5 49.2671H80.49Z" fill="white"/>
<path d="M82.69 56.3674C82.02 58.3674 81.23 58.7074 79.7 58.7174C78.83 58.7174 68.71 58.7174 68.32 58.7174C68.16 58.7174 67.98 58.6574 67.85 58.5474C67.71 58.4274 67.62 58.2574 67.6 58.0674V58.0474C67.6 58.0474 67.6 57.7274 67.6 55.9074V54.9674C67.6 53.6174 68.4 53.0474 69.04 52.5774H69.06C69.25 52.4274 70.67 51.3874 72.54 50.0274C76.65 47.0474 82.85 42.5374 83.19 42.2874C83.26 42.2374 83.3 42.1274 83.28 42.0274C83.28 41.9674 83.24 41.8874 83.08 41.8274C82.37 41.5974 68.93 37.2374 65.46 36.1074C65.46 39.8574 65.46 45.5974 65.46 47.1574C66.09 46.6974 67.39 45.7574 67.56 45.6374C67.58 45.6274 67.6 45.5974 67.6 45.5574C67.6 45.3874 67.6 39.9174 67.6 39.9174V39.0674L78.88 42.7274L77.9 43.4374C77.8 43.5174 67.5 50.9874 66.73 51.5474C65.98 52.0974 65.48 52.7074 65.47 53.8974C65.47 55.4874 65.46 59.6474 65.47 60.3674C65.47 60.6974 65.66 60.8874 65.98 60.8874H67.3C70.65 60.8874 79.56 60.8874 80.47 60.8874C80.47 60.8874 80.49 60.8874 80.5 60.8874C82.68 60.8874 83.74 60.1174 84.42 58.0374C84.6 57.4874 88.5 45.4474 89.05 43.7474L87 43.0774L82.69 56.3574V56.3674Z" fill="white"/>
<path d="M86.73 30.4572C86.73 30.4572 86.81 30.4272 86.83 30.3672C86.9 30.1372 87.77 27.4972 88.21 26.1172C88.41 25.5572 88.39 25.3372 88.34 25.1872C88.3 25.0672 88.2 24.8772 87.77 24.5672L84.07 21.8772C84 21.8272 83.96 21.8472 83.95 21.8572C83.86 21.9272 83.89 22.0072 83.89 22.0172C83.93 22.1572 86.51 30.0872 86.6 30.3772C86.61 30.4172 86.67 30.4472 86.74 30.4472L86.73 30.4572Z" fill="white"/>
<path d="M93.45 20.9977C92.99 20.6677 82.68 13.1777 81.29 12.1777L80.02 13.9277L91.32 22.1277C93.02 23.3877 93.1 24.2177 92.63 25.6977C92.45 26.2377 91.09 30.4277 90.09 33.4877C89.33 35.8377 89.15 36.3677 89.11 36.5077C89.06 36.6777 88.95 36.8177 88.8 36.9077C88.64 37.0077 88.44 37.0377 88.26 36.9877C88.23 36.9877 88.16 36.9577 86.75 36.4977C86.25 36.3377 85.72 36.1577 85.32 36.0377C84.04 35.6277 83.74 34.6877 83.49 33.9377V33.9177C83.06 32.6277 78.26 17.8577 78.08 17.2977C78.05 17.2177 77.96 17.1477 77.86 17.1277C77.8 17.1277 77.71 17.1277 77.62 17.2577C77.18 17.8677 68.88 29.2977 66.74 32.2477C70.3 33.4077 75.76 35.1777 77.25 35.6677C77.23 35.5977 77.2 35.5177 77.18 35.4377C76.93 34.6677 76.51 33.3777 76.45 33.1977C76.45 33.1877 76.43 33.1477 76.39 33.1377C76.22 33.0877 71.23 31.4677 71.02 31.3977L70.21 31.1377L77.18 21.5377L77.55 22.6877C77.59 22.8077 81.52 34.9177 81.81 35.8177C82.1 36.7077 82.53 37.3677 83.66 37.7377C85.16 38.2377 89.15 39.5377 89.81 39.7377C90.12 39.8377 90.37 39.7177 90.47 39.4177C90.66 38.8277 94.61 26.6477 94.95 25.6277C95.63 23.5377 95.23 22.2877 93.46 20.9977H93.45Z" fill="white"/>
<path d="M34.23 59.5084H33.66V56.2084C33.86 56.1784 34.22 56.1484 34.48 56.1484C35.35 56.1484 35.82 56.5284 35.82 57.2284C35.82 57.7084 35.55 58.0684 35.16 58.2084L36.16 59.5084H35.48L34.6 58.3384H34.23V59.5084ZM34.23 57.8684H34.51C34.96 57.8684 35.25 57.6784 35.25 57.2484C35.25 56.8684 34.99 56.6484 34.49 56.6484C34.42 56.6484 34.29 56.6484 34.23 56.6584V57.8684Z" fill="white"/>
<path d="M34.61 60.878C32.97 60.878 31.63 59.538 31.63 57.898C31.63 56.258 32.97 54.918 34.61 54.918C36.25 54.918 37.59 56.258 37.59 57.898C37.59 59.538 36.25 60.878 34.61 60.878ZM34.61 55.418C33.24 55.418 32.13 56.528 32.13 57.898C32.13 59.268 33.24 60.378 34.61 60.378C35.98 60.378 37.09 59.268 37.09 57.898C37.09 56.528 35.98 55.418 34.61 55.418Z" fill="white"/>
<path d="M0 104.448V94.7979H4.94V95.6779H1.01V99.1678H4.58V100.058H1.01V104.438H0V104.448Z" fill="white"/>
<path d="M19.91 104.448H18.9V94.7979H19.91V104.448Z" fill="white"/>
<path d="M40.63 102.988V94.8076H41.6V104.458H40.59L34.84 96.2876V104.458H33.87V94.8076H34.91L37.83 98.9876L40.63 102.988Z" fill="white"/>
<path d="M57.62 101.788L56.61 104.448H55.57L59.31 94.7979H60.59L64.37 104.448H63.3L62.29 101.788H57.61H57.62ZM59.95 95.6178L57.94 100.948H61.98L59.95 95.6178Z" fill="white"/>
<path d="M85.1 102.988V94.8076H86.07V104.458H85.06L79.31 96.2876V104.458H78.34V94.8076H79.38L82.3 98.9876L85.1 102.988Z" fill="white"/>
<path d="M107.7 96.5379C107 95.8679 106.04 95.5479 105.02 95.5479C102.84 95.5479 101.07 97.1379 101.07 99.6279C101.07 102.118 102.84 103.708 105.02 103.708C106.04 103.708 107.05 103.398 107.75 102.748V103.898C106.99 104.348 106.01 104.608 105.04 104.608C102.12 104.608 100.05 102.578 100.05 99.6179C100.05 96.6579 102.26 94.6279 105.04 94.6279C106.01 94.6279 106.92 94.8879 107.7 95.3579V96.5279V96.5379Z" fill="white"/>
<path d="M127.27 103.578V104.458H121.72V94.8076H127.21V95.6876H122.73V99.0976H126.92V99.9776H122.73V103.588H127.28L127.27 103.578Z" fill="white"/>
<path d="M127.27 85.9376V87.4476C127.27 87.6276 127.1 87.6277 127.1 87.6277H116.54C114.33 87.6277 112.53 85.8376 112.53 83.6176V69.9676C112.53 69.9676 112.49 69.6776 112.77 69.7976L114.62 70.4676C114.62 70.4676 114.78 70.5176 114.78 70.6876V83.6477C114.78 84.8077 115.72 85.7476 116.88 85.7476H127.07C127.07 85.7476 127.27 85.7277 127.26 85.9277L127.27 85.9376Z" fill="white"/>
<path d="M0 85.9572V87.4672C0 87.6472 0.169998 87.6472 0.169998 87.6472H10.73C12.94 87.6472 14.74 85.8572 14.74 83.6372V69.9872C14.74 69.9872 14.78 69.6972 14.5 69.8172L12.65 70.4872C12.65 70.4872 12.49 70.5372 12.49 70.7072V83.6672C12.49 84.8272 11.55 85.7672 10.39 85.7672H0.200005C0.200005 85.7672 2.13645e-06 85.7472 0.0100021 85.9472L0 85.9572Z" fill="white"/>
<path d="M68.44 86.7771V69.8671C68.44 69.8671 68.44 69.7871 68.36 69.7871H65.77C65.77 69.7871 65.67 69.7871 65.63 69.8571L55.84 84.8071L46.28 69.9071C46.28 69.9071 46.21 69.7871 46.04 69.7871H43.43C43.43 69.7871 43.25 69.7871 43.25 69.9471V87.5171C43.25 87.6571 43.39 87.6471 43.39 87.6471H45.41C45.52 87.6471 45.52 87.5271 45.52 87.5271V73.1771L54.81 87.4771C54.81 87.4771 54.9 87.6371 55.08 87.6371H56.63C56.63 87.6371 56.8 87.6371 56.89 87.4771L66.15 73.2771V87.5171C66.15 87.6571 66.29 87.6471 66.29 87.6471H68.31C68.42 87.6471 68.42 87.5271 68.42 87.5271V86.7671L68.44 86.7771Z" fill="white"/>
<path d="M40.8 87.4776L29.38 69.8976L29.35 69.8576C29.35 69.8576 29.3 69.7676 29.18 69.7676H27.5C27.5 69.7676 27.39 69.7676 27.33 69.8576L15.9 87.3876C15.9 87.3876 15.71 87.6376 16.01 87.6376H18.28C18.53 87.6376 18.63 87.4576 18.63 87.4576L28.36 72.5976L32.88 79.6376H26.4C26.25 79.6376 26.16 79.7476 26.1 79.8576L25.24 81.2976C25.1 81.5276 25.34 81.5176 25.46 81.5176H34.09L37.93 87.5076C37.93 87.5076 38.01 87.6476 38.19 87.6476H40.69C40.93 87.6476 40.8 87.4776 40.8 87.4776Z" fill="white"/>
<path d="M109.91 85.7877H96.04C94.88 85.7877 93.94 84.8477 93.94 83.6877V78.7777H109.94C109.94 78.7777 110.11 78.7777 110.11 78.5977V77.0877C110.11 76.8877 109.92 76.9077 109.92 76.9077H93.95V71.6577H109.95C109.95 71.6577 110.12 71.6577 110.12 71.4777V69.9677C110.12 69.7677 109.93 69.7877 109.93 69.7877H91.83C91.7 69.7877 91.71 69.9277 91.71 69.9277V83.6677C91.71 85.8877 93.51 87.6777 95.73 87.6777H109.97C109.97 87.6777 110.14 87.6777 110.14 87.4977V85.9877C110.14 85.7877 109.95 85.8077 109.95 85.8077L109.91 85.7877Z" fill="white"/>
<path d="M89.1 85.7877H75.23C74.07 85.7877 73.13 84.8477 73.13 83.6877V78.7777H89.13C89.13 78.7777 89.3 78.7777 89.3 78.5977V77.0877C89.3 76.8877 89.11 76.9077 89.11 76.9077H73.14V71.6577H89.14C89.14 71.6577 89.31 71.6577 89.31 71.4777V69.9677C89.31 69.7677 89.12 69.7877 89.12 69.7877H71.02C70.89 69.7877 70.9 69.9277 70.9 69.9277V83.6677C70.9 85.8877 72.7 87.6777 74.92 87.6777H89.16C89.16 87.6777 89.33 87.6777 89.33 87.4977V85.9877C89.33 85.7877 89.14 85.8077 89.14 85.8077L89.1 85.7877Z" fill="white"/>
</svg>
