<svg width="229" height="188" viewBox="0 0 229 188" fill="none" xmlns="http://www.w3.org/2000/svg">
<path d="M96.01 97.6311C95.89 97.5411 83.7 88.6811 83.27 88.3611C83.24 88.3411 83.21 88.3311 83.17 88.3311C83.11 88.3311 83.05 88.3511 83 88.3911C82.96 88.4211 82.9 88.5311 82.94 88.6411C83.09 89.1311 85.38 96.1711 85.41 96.2411V96.2711C85.72 97.2711 85.97 97.561 86.2 97.731C86.39 97.861 86.74 98.0411 87.67 98.0211H95.89C96.06 98.0211 96.08 97.9511 96.09 97.9111C96.15 97.7311 96.02 97.6211 96.02 97.6211L96.01 97.6311Z" fill="#4F86A0"/>
<path d="M79.45 101.531C78.97 99.9914 73.36 82.7214 73.16 82.1314V82.1114C72.94 81.4814 73.26 80.7915 73.88 80.5415C73.96 80.5115 74.12 80.4614 77.14 79.4714L79.17 78.8114C81.47 78.0614 82.9 79.1114 84.05 79.9414L84.07 79.9614L87.7 82.6014C94.52 87.5514 108.72 97.8714 109.41 98.3614C109.54 98.4514 109.75 98.4614 109.91 98.3814C110.01 98.3314 110.13 98.2314 110.13 97.9414C110.13 96.5914 110.13 71.2514 110.12 64.7314C105.99 66.0714 94.26 69.8814 91.27 70.8614C91.47 71.0114 91.74 71.2014 92.07 71.4414C93.21 72.2714 94.78 73.4114 95.02 73.5814C95.06 73.6014 95.11 73.6414 95.18 73.6214C95.48 73.5214 104.72 70.5214 104.81 70.4914L106.26 70.0214V91.2915L104.51 90.0115C104.32 89.8715 85.87 76.4514 84.48 75.4614C83.54 74.7914 82.61 74.3314 81.46 74.3314C80.95 74.3314 80.39 74.4214 79.77 74.6214C77 75.5114 69.89 77.8114 68.74 78.1914C68.19 78.3714 67.96 78.8014 68.13 79.3414C68.23 79.6514 69.13 82.4214 70.3 86.0014C72.61 93.0914 75.77 102.801 76.17 104.061C77.38 107.811 79.28 109.211 83.2 109.211C84.23 109.211 107.07 109.201 110.13 109.201V105.331L85.09 105.351C81.31 105.311 80.29 104.151 79.43 101.551L79.45 101.531Z" fill="#4F86A0"/>
<path d="M105.84 18.601C105.84 18.601 121.06 18.601 121.6 18.601C121.68 18.601 121.77 18.511 121.8 18.411C121.8 18.381 121.8 18.261 121.7 18.191C121.36 17.941 117.32 15.001 115.23 13.481C114.38 12.831 114 12.751 113.71 12.751C113.48 12.751 113.09 12.821 112.34 13.381L105.7 18.211C105.57 18.311 105.59 18.371 105.6 18.421C105.66 18.601 105.82 18.611 105.83 18.611L105.84 18.601Z" fill="#4F86A0"/>
<path d="M120.77 37.4813C120.71 37.4813 120.66 37.5013 120.63 37.5413C120.45 37.7913 114.92 45.4213 114.68 45.7413L113.79 46.9713L101.27 29.7713H103.45C103.68 29.7713 126.5 29.7813 128.21 29.7713C129.88 29.7713 131.26 29.4013 132.51 27.6913C134.21 25.3713 138.65 19.2713 139.34 18.3113C139.68 17.8413 139.61 17.3513 139.15 17.0213C138.14 16.2913 119.72 2.92127 118.12 1.75127C114.93 -0.57873 112.57 -0.578733 109.4 1.72127C108.56 2.33127 90.09 15.7613 87.62 17.5613L89.89 20.6913L110.14 5.96127C113.22 3.76127 114.73 4.11127 116.95 5.71127C118.38 6.77127 133.26 17.5813 133.45 17.7113C134 18.1013 134.15 18.8513 133.79 19.4213C133.73 19.5113 133.29 20.1213 130.67 23.7313L130.54 23.9113C129.13 25.8613 127.36 25.8613 125.94 25.8613H125.89C123.94 25.8613 95.65 25.8613 94.57 25.8713C94.42 25.8713 94.24 25.9913 94.16 26.1513C94.11 26.2513 94.07 26.4113 94.24 26.6513C95.03 27.7313 109.93 48.2313 113.77 53.5113C116.32 50.0013 123.58 40.0213 125.43 37.4713C122.61 37.4713 121.04 37.4713 120.78 37.4713L120.77 37.4813Z" fill="#4F86A0"/>
<path d="M132.13 19.5117C132.13 19.5117 132.16 19.5317 132.17 19.5417C132.17 19.5417 132.14 19.5217 132.13 19.5117Z" fill="#4F86A0"/>
<path d="M76.97 39.311C76.97 39.311 76.92 39.291 76.88 39.291C76.84 39.291 76.78 39.301 76.73 39.341C76.31 39.641 70.31 43.991 70.25 44.041C69.37 44.651 69.17 44.991 69.08 45.261C69.01 45.471 68.96 45.861 69.26 46.751L71.8 54.561C71.85 54.721 71.93 54.721 71.97 54.721C72.16 54.721 72.22 54.571 72.22 54.561C72.28 54.371 76.93 40.091 77.1 39.581C77.12 39.511 77.08 39.401 76.98 39.321L76.97 39.311Z" fill="#4F86A0"/>
<path d="M61.53 46.5609C60.39 42.9309 61.15 41.6609 63.4 40.0109C64.34 39.3409 72.54 33.3809 76.95 30.1809C79.28 28.4909 79.79 28.1209 79.91 28.0309C80.16 27.8409 80.47 27.7509 80.78 27.7809C81.12 27.8109 81.42 27.9709 81.64 28.2409C81.7 28.3109 81.93 28.6309 83.6 30.9309L84.9 32.7209C86.32 34.6709 85.78 36.3509 85.34 37.7009V37.7409C84.73 39.5809 75.98 66.5409 75.66 67.5309C75.61 67.6809 75.67 67.8809 75.8 68.0109C75.88 68.0909 76.01 68.1809 76.29 68.0909C77.56 67.6709 101.66 59.8309 107.87 57.8109C103.92 52.3709 97.87 44.0509 96.22 41.7709C95.78 43.1109 94.89 45.8509 94.79 46.1909C94.77 46.2509 94.76 46.3009 94.8 46.3509C94.99 46.6109 100.7 54.4609 100.76 54.5409L101.66 55.7709L81.44 62.3609L82.11 60.2909C82.18 60.0709 89.24 38.3709 89.76 36.7509C90.27 35.1609 90.35 33.7409 89.11 32.0209C87.42 29.6709 83.02 23.6109 82.3 22.6309C82.1 22.3509 81.84 22.2109 81.57 22.2109C81.39 22.2109 81.2 22.2809 81.02 22.4109C80.81 22.5609 79.34 23.6309 77.26 25.1509C71.64 29.2409 61.19 36.8409 60 37.6909C56.8 40.0009 56.07 42.2409 57.28 45.9709C57.6 46.9609 64.67 68.6709 65.61 71.5809L69.29 70.3909L61.54 46.5809L61.53 46.5609Z" fill="#4F86A0"/>
<path d="M144.34 88.3211C144.22 88.4111 132.02 97.2611 131.6 97.5711C131.52 97.6311 131.5 97.7411 131.54 97.8411C131.56 97.8911 131.64 97.9811 131.75 97.9811C132.27 97.9811 139.68 97.9811 139.75 97.9811C140.82 98.0011 141.18 97.8511 141.41 97.6811C141.59 97.5511 141.87 97.2711 142.14 96.3711L144.68 88.5611C144.73 88.4111 144.67 88.3711 144.64 88.3411C144.48 88.2211 144.35 88.3111 144.34 88.3211Z" fill="#4F86A0"/>
<path d="M148.29 101.061C147.09 104.651 145.67 105.251 142.93 105.271C141.37 105.261 123.22 105.251 122.53 105.251C122.24 105.251 121.93 105.151 121.69 104.951C121.43 104.731 121.27 104.421 121.25 104.091V104.061C121.25 103.981 121.25 103.491 121.25 100.221V98.5314C121.25 96.1214 122.68 95.0814 123.82 94.2514L123.86 94.2214C124.2 93.9714 126.75 92.1214 130.11 89.6814C137.47 84.3314 148.6 76.2414 149.2 75.8014C149.32 75.7114 149.39 75.5114 149.36 75.3314C149.34 75.2214 149.29 75.0714 149.01 74.9814C147.74 74.5714 123.63 66.7514 117.42 64.7314C117.42 71.4514 117.42 81.7514 117.42 84.5514C118.56 83.7314 120.89 82.0414 121.18 81.8214C121.21 81.8014 121.26 81.7514 121.26 81.6814C121.26 81.3714 121.26 71.5614 121.26 71.5614V70.0414L141.49 76.6014L139.73 77.8814C139.54 78.0214 121.08 91.4114 119.7 92.4314C118.35 93.4214 117.45 94.5214 117.44 96.6414C117.43 99.4914 117.42 106.961 117.42 108.241C117.42 108.821 117.77 109.181 118.33 109.181H120.7C126.71 109.181 142.68 109.171 144.32 109.181C144.34 109.181 144.36 109.181 144.37 109.181C148.28 109.181 150.18 107.791 151.39 104.081C151.7 103.091 158.71 81.5014 159.7 78.4614L156.02 77.2714L148.29 101.081V101.061Z" fill="#4F86A0"/>
<path d="M155.53 54.5914C155.53 54.5914 155.67 54.5414 155.71 54.4314V54.4014C155.85 54.0214 157.4 49.2714 158.19 46.8114C158.54 45.8014 158.51 45.4114 158.42 45.1414C158.35 44.9314 158.17 44.5814 157.39 44.0414L150.75 39.2214C150.62 39.1214 150.56 39.1714 150.53 39.1914C150.37 39.3114 150.41 39.4614 150.42 39.4714C150.5 39.7214 155.11 53.9514 155.28 54.4514C155.3 54.5114 155.4 54.5814 155.53 54.5814V54.5914Z" fill="#4F86A0"/>
<path d="M167.57 37.6413C166.74 37.0413 148.26 23.6313 145.77 21.8213L143.5 24.9513L163.76 39.6513C166.81 41.9213 166.95 43.3913 166.1 46.0513C165.78 47.0213 163.33 54.5413 161.54 60.0213C160.17 64.2313 159.86 65.1913 159.78 65.4313C159.69 65.7313 159.49 65.9913 159.22 66.1513C158.92 66.3313 158.58 66.3813 158.25 66.2913C158.19 66.2713 158.07 66.2413 155.54 65.4213C154.64 65.1313 153.68 64.8213 152.98 64.5913C150.69 63.8513 150.14 62.1713 149.71 60.8213V60.7813C148.95 58.4813 140.34 31.9913 140.01 30.9913C139.96 30.8513 139.79 30.7213 139.61 30.6913C139.49 30.6713 139.34 30.6913 139.17 30.9213C138.38 32.0113 123.49 52.5213 119.66 57.8013C126.05 59.8813 135.84 63.0613 138.51 63.9213C138.47 63.8013 138.43 63.6613 138.38 63.5113C137.93 62.1313 137.18 59.8213 137.07 59.4913C137.07 59.4613 137.04 59.4013 136.97 59.3813C136.67 59.2813 127.72 56.3813 127.33 56.2513L125.88 55.7813L138.37 38.5713L139.04 40.6413C139.11 40.8613 146.15 62.5613 146.69 64.1813C147.22 65.7713 147.98 66.9613 150 67.6213C152.7 68.5113 159.85 70.8413 161.02 71.2113C161.58 71.3913 162.02 71.1713 162.2 70.6413C162.54 69.5813 169.62 47.7513 170.23 45.9213C171.46 42.1813 170.73 39.9313 167.56 37.6213L167.57 37.6413Z" fill="#4F86A0"/>
<path d="M61.39 106.701H60.37V100.781C60.73 100.721 61.37 100.671 61.85 100.671C63.41 100.671 64.26 101.361 64.26 102.611C64.26 103.481 63.77 104.111 63.08 104.371L64.87 106.711H63.64L62.06 104.601H61.39V106.711V106.701ZM61.39 103.751H61.89C62.7 103.751 63.22 103.401 63.22 102.631C63.22 101.951 62.75 101.551 61.85 101.551C61.73 101.551 61.5 101.551 61.39 101.571V103.751Z" fill="#4F86A0"/>
<path d="M62.07 109.141C59.13 109.141 56.73 106.741 56.73 103.801C56.73 100.861 59.13 98.4609 62.07 98.4609C65.01 98.4609 67.41 100.861 67.41 103.801C67.41 106.741 65.01 109.141 62.07 109.141ZM62.07 99.3509C59.61 99.3509 57.62 101.351 57.62 103.801C57.62 106.251 59.62 108.251 62.07 108.251C64.52 108.251 66.52 106.251 66.52 103.801C66.52 101.351 64.52 99.3509 62.07 99.3509Z" fill="#4F86A0"/>
<path d="M0.00999832 187.271V169.971H8.86V171.541H1.81V177.801H8.22V179.401H1.81V187.261H0L0.00999832 187.271Z" fill="#807F83"/>
<path d="M35.72 187.271H33.91V169.971H35.72V187.271Z" fill="#807F83"/>
<path d="M72.88 184.651V169.971H74.63V187.271H72.82L62.51 172.621V187.271H60.76V169.971H62.62L67.86 177.471L72.87 184.651H72.88Z" fill="#807F83"/>
<path d="M103.34 182.5L101.53 187.28H99.67L106.37 169.98H108.67L115.45 187.28H113.53L111.72 182.5H103.33H103.34ZM107.5 171.43L103.89 180.98H111.14L107.5 171.43Z" fill="#807F83"/>
<path d="M152.61 184.651V169.971H154.36V187.271H152.55L142.24 172.621V187.271H140.49V169.971H142.35L147.59 177.471L152.6 184.651H152.61Z" fill="#807F83"/>
<path d="M193.12 173.091C191.87 171.901 190.15 171.311 188.32 171.311C184.42 171.311 181.24 174.161 181.24 178.621C181.24 183.081 184.41 185.931 188.32 185.931C190.15 185.931 191.96 185.381 193.21 184.211V186.281C191.84 187.101 190.09 187.561 188.35 187.561C183.11 187.561 179.41 183.921 179.41 178.621C179.41 173.321 183.37 169.681 188.35 169.681C190.1 169.681 191.73 170.151 193.13 170.991V173.091H193.12Z" fill="#807F83"/>
<path d="M228.21 185.701V187.271H218.25V169.971H228.09V171.541H220.05V177.651H227.56V179.221H220.05V185.681H228.2L228.21 185.701Z" fill="#807F83"/>
<path d="M228.21 154.08V156.79C228.21 157.11 227.91 157.12 227.91 157.12H208.98C205.01 157.12 201.79 153.9 201.79 149.93V125.46C201.79 125.46 201.72 124.95 202.22 125.16L205.53 126.37C205.53 126.37 205.81 126.46 205.81 126.76V149.99C205.81 152.07 207.5 153.76 209.58 153.76H227.85C227.85 153.76 228.21 153.73 228.2 154.09L228.21 154.08Z" fill="#002D5D"/>
<path d="M0.0100098 154.11V156.82C0.0100098 157.14 0.310011 157.15 0.310011 157.15H19.24C23.21 157.15 26.43 153.93 26.43 149.96V125.49C26.43 125.49 26.5 124.98 26 125.19L22.69 126.4C22.69 126.4 22.41 126.49 22.41 126.79V150.02C22.41 152.1 20.72 153.79 18.64 153.79H0.37001C0.37001 153.79 0.01001 153.76 0.02001 154.12L0.0100098 154.11Z" fill="#002D5D"/>
<path d="M122.73 155.58V125.27C122.73 125.27 122.73 125.12 122.58 125.12H117.94C117.94 125.12 117.77 125.12 117.69 125.25L100.14 152.05L83 125.34C83 125.34 82.87 125.12 82.57 125.12H77.89C77.89 125.12 77.58 125.11 77.58 125.41V156.91C77.58 157.17 77.83 157.15 77.83 157.15H81.45C81.64 157.15 81.64 156.94 81.64 156.94V131.21L98.3 156.85C98.3 156.85 98.46 157.13 98.79 157.13H101.58C101.58 157.13 101.89 157.13 102.05 156.85L118.66 131.38V156.92C118.66 157.18 118.91 157.16 118.91 157.16H122.53C122.73 157.16 122.72 156.95 122.72 156.95V155.59L122.73 155.58Z" fill="#002D5D"/>
<path d="M73.18 156.841L52.71 125.331L52.66 125.261C52.66 125.261 52.57 125.101 52.36 125.101H49.35C49.35 125.101 49.16 125.101 49.05 125.261L28.55 156.691C28.55 156.691 28.21 157.141 28.76 157.141H32.82C33.27 157.141 33.45 156.821 33.45 156.821L50.89 130.181L58.99 142.801H47.37C47.09 142.801 46.94 142.991 46.82 143.191L45.27 145.771C45.02 146.191 45.45 146.161 45.66 146.161H61.14L68.03 156.901C68.03 156.901 68.18 157.141 68.49 157.141H72.97C73.39 157.141 73.16 156.831 73.16 156.831L73.18 156.841Z" fill="#002D5D"/>
<path d="M197.09 153.81H172.22C170.14 153.81 168.45 152.12 168.45 150.04V141.24H197.13C197.13 141.24 197.43 141.24 197.43 140.91V138.2C197.43 137.84 197.08 137.87 197.08 137.87H168.45V128.46H197.13C197.13 128.46 197.43 128.46 197.43 128.13V125.42C197.43 125.06 197.08 125.09 197.08 125.09H164.63C164.39 125.09 164.41 125.34 164.41 125.34V149.97C164.42 153.94 167.64 157.16 171.61 157.16H197.14C197.14 157.16 197.44 157.16 197.44 156.83V154.12C197.44 153.76 197.09 153.79 197.09 153.79V153.81Z" fill="#002D5D"/>
<path d="M159.77 153.81H134.9C132.82 153.81 131.13 152.12 131.13 150.04V141.24H159.81C159.81 141.24 160.11 141.24 160.11 140.91V138.2C160.11 137.84 159.76 137.87 159.76 137.87H131.13V128.46H159.81C159.81 128.46 160.11 128.46 160.11 128.13V125.42C160.11 125.06 159.76 125.09 159.76 125.09H127.31C127.07 125.09 127.09 125.34 127.09 125.34V149.97C127.1 153.94 130.32 157.16 134.29 157.16H159.82C159.82 157.16 160.12 157.16 160.12 156.83V154.12C160.12 153.76 159.77 153.79 159.77 153.79V153.81Z" fill="#002D5D"/>
</svg>
